<?xml version="1.0" encoding="UTF-8" standalone="no"?>
<svg id="svg2" xmlns:rdf="http://www.w3.org/1999/02/22-rdf-syntax-ns#" xmlns="http://www.w3.org/2000/svg" height="64" width="32" version="1.1" xmlns:cc="http://creativecommons.org/ns#" xmlns:xlink="http://www.w3.org/1999/xlink" viewBox="0 0 32 64.000002" xmlns:dc="http://purl.org/dc/elements/1.1/">
 <g id="water-layer">
  <rect id="rect4208" height="63" width="31" stroke="#0f0" y=".5" x=".5" fill="#0f0"/>
 </g>
 <g id="cover-layer">
  <path id="rect4210" d="m1.5 1.5h29v51s-1.4147-0.41988-2.1402-0.40025c-0.56343 0.01524-1.0793 0.41243-1.6428 0.40025-0.79832-0.01726-1.5034-0.71002-2.3008-0.66708-0.5843 0.03147-1.0417 0.60728-1.6238 0.66708-0.33663 0.03459-0.65989-0.17-0.99787-0.18678-0.725-0.036-1.445 0.216-2.171 0.187-0.756-0.03-1.455-0.2-2.238-0.374-0.61-0.135-1.213 0.406-1.838 0.374-0.565-0.029-1.057-0.449-1.62-0.507-0.999-0.103-1.994 0.321-2.998 0.294-0.816-0.023-1.6087-0.464-2.4198-0.374-0.5306 0.059-0.9583 0.541-1.4903 0.587-1.1779 0.101-2.293-0.8-3.4725-0.72-0.7216 0.048-2.0464 0.72-2.0464 0.72z" stroke="#fff" fill="#fff"/>
 </g>
 <g id="thermo-layer">
  <path id="rect4213" d="m16 2.5c-1.939 0-3.5 1.561-3.5 3.5v40.373a7.5 7.5 0 0 0 -4 6.627 7.5 7.5 0 0 0 7.5 7.5 7.5 7.5 0 0 0 7.5 -7.5 7.5 7.5 0 0 0 -4 -6.6289v-40.371c0-1.939-1.561-3.5-3.5-3.5z" stroke="#000" fill="none"/>
 </g>
 <g id="thermometer-toper">
  <path id="path4218" d="m16-28.643c-1.4783 0-2.6426 1.1643-2.6426 2.6426v40.373a0.85847 0.85847 0 0 1 -0.45703 0.75976c-2.123 1.12-3.5406 3.466-3.5426 5.867 0 1.7388 0.71582 3.4678 1.9453 4.6973s2.9585 1.9453 4.6973 1.9453 3.4678-0.71582 4.6973-1.9453 1.9453-2.9585 1.9453-4.6973c-0.0014-2.4014-1.4191-4.7485-3.543-5.8691a0.85847 0.85847 0 0 1 -0.45703 -0.75976v-40.371c0-1.4783-1.1643-2.6426-2.6426-2.6426z" xlink:href="#rect4213" transform="translate(0,32)" stroke="#fff" fill="none"/>
 </g>
 <g id="cover-background">
  <path id="rect4249" d="m0.5 0.5v63h31v-63h-31zm15.5 2c1.939 0 3.5 1.561 3.5 3.5v40.371a7.5 7.5 0 0 1 4 6.629 7.5 7.5 0 0 1 -7.5 7.5 7.5 7.5 0 0 1 -7.5 -7.5 7.5 7.5 0 0 1 4 -6.627v-40.373c0-1.939 1.561-3.5 3.5-3.5z" display="inline" stroke="#f00" fill="#f00"/>
 </g>
</svg>
