<?xml version="1.0" encoding="UTF-8" standalone="no"?>
<!-- Created with Inkscape (http://www.inkscape.org/) -->

<svg
   xmlns:dc="http://purl.org/dc/elements/1.1/"
   xmlns:cc="http://creativecommons.org/ns#"
   xmlns:rdf="http://www.w3.org/1999/02/22-rdf-syntax-ns#"
   xmlns:svg="http://www.w3.org/2000/svg"
   xmlns="http://www.w3.org/2000/svg"
   xmlns:sodipodi="http://sodipodi.sourceforge.net/DTD/sodipodi-0.dtd"
   xmlns:inkscape="http://www.inkscape.org/namespaces/inkscape"
   width="32"
   height="32"
   viewBox="0 0 32 32.000001"
   id="svg2"
   version="1.1"
   inkscape:version="0.91 r13725"
   sodipodi:docname="icon-ink.svg">
  <defs
     id="defs4">
    <inkscape:path-effect
       is_visible="true"
       id="path-effect4279"
       effect="spiro" />
    <inkscape:path-effect
       effect="spiro"
       id="path-effect4205"
       is_visible="true" />
    <inkscape:path-effect
       effect="spiro"
       id="path-effect4198"
       is_visible="true" />
    <inkscape:path-effect
       effect="spiro"
       id="path-effect4167"
       is_visible="true" />
    <inkscape:path-effect
       effect="spiro"
       id="path-effect4205-7"
       is_visible="true" />
    <inkscape:path-effect
       effect="spiro"
       id="path-effect4205-3"
       is_visible="true" />
    <inkscape:path-effect
       effect="spiro"
       id="path-effect4205-3-8"
       is_visible="true" />
    <inkscape:path-effect
       effect="spiro"
       id="path-effect4205-3-2"
       is_visible="true" />
    <inkscape:path-effect
       effect="spiro"
       id="path-effect4205-3-0"
       is_visible="true" />
    <inkscape:path-effect
       effect="spiro"
       id="path-effect4205-3-5"
       is_visible="true" />
    <inkscape:path-effect
       effect="spiro"
       id="path-effect4205-3-21"
       is_visible="true" />
    <inkscape:path-effect
       effect="spiro"
       id="path-effect4205-3-1"
       is_visible="true" />
    <inkscape:path-effect
       effect="spiro"
       id="path-effect4205-3-7"
       is_visible="true" />
    <inkscape:path-effect
       effect="spiro"
       id="path-effect4205-3-70"
       is_visible="true" />
    <inkscape:path-effect
       effect="spiro"
       id="path-effect4205-3-3"
       is_visible="true" />
    <inkscape:path-effect
       effect="spiro"
       id="path-effect4205-3-15"
       is_visible="true" />
    <inkscape:path-effect
       effect="spiro"
       id="path-effect4205-3-6"
       is_visible="true" />
  </defs>
  <sodipodi:namedview
     id="base"
     pagecolor="#ffffff"
     bordercolor="#666666"
     borderopacity="1.0"
     inkscape:pageopacity="0.0"
     inkscape:pageshadow="2"
     inkscape:zoom="6.625"
     inkscape:cx="11.282707"
     inkscape:cy="19.869329"
     inkscape:document-units="px"
     inkscape:current-layer="svg2"
     showgrid="true"
     inkscape:window-width="1920"
     inkscape:window-height="1017"
     inkscape:window-x="1912"
     inkscape:window-y="-8"
     inkscape:window-maximized="1"
     units="px"
     inkscape:snap-grids="false">
    <inkscape:grid
       type="xygrid"
       id="grid4136" />
  </sodipodi:namedview>
  <metadata
     id="metadata7">
    <rdf:RDF>
      <cc:Work
         rdf:about="">
        <dc:format>image/svg+xml</dc:format>
        <dc:type
           rdf:resource="http://purl.org/dc/dcmitype/StillImage" />
        <dc:title></dc:title>
      </cc:Work>
    </rdf:RDF>
  </metadata>
  <path
     style="fill:#ff0000;fill-opacity:1;stroke:#ff0000;stroke-width:1;stroke-linecap:butt;stroke-linejoin:round;stroke-miterlimit:4;stroke-dasharray:none;stroke-dashoffset:0"
     d="m 22.045283,29.961342 c -1.046183,-0.132838 -1.995658,-0.58708 -2.689671,-1.286776 -0.412907,-0.416287 -0.602999,-0.681784 -0.858535,-1.199094 -0.542922,-1.099098 -0.623409,-2.252249 -0.237751,-3.406317 0.385362,-1.153184 1.282131,-2.136728 2.42133,-2.655629 l 0.345759,-0.157492 0,-7.12613 0,-7.1261304 1.471698,0 1.471698,0 0,7.1261064 0,7.126106 L 24.3,21.403033 c 0.972424,0.43306 1.762362,1.196878 2.221364,2.14791 0.623435,1.291733 0.609875,2.68791 -0.03858,3.972371 -0.614023,1.216257 -1.756795,2.088175 -3.10267,2.367291 -0.295002,0.06118 -1.08175,0.102871 -1.33483,0.07074 z"
     id="path4289"
     inkscape:connector-curvature="0" />
  <path
     style="fill:#008000;fill-opacity:1;stroke:#008000;stroke-width:1;stroke-linecap:butt;stroke-linejoin:round;stroke-miterlimit:4;stroke-dasharray:none;stroke-dashoffset:0"
     d="M 7.8113109,29.929198 C 5.9223544,29.617372 4.4435151,28.174089 4.0922612,26.299568 4.0223453,25.92645 4.012468,25.178089 4.0725845,24.808752 4.3073521,23.36641 5.2025908,22.158411 6.5415824,21.477185 7.0417667,21.22271 6.9983067,21.450596 7.0103508,19.019156 l 0.010361,-2.091601 1.4896395,0 1.4896392,0 0,2.16741 0,2.167411 0.3552275,0.168273 c 0.519883,0.246271 0.850655,0.474396 1.25543,0.86584 1.803097,1.743708 1.825281,4.584771 0.04972,6.36738 -0.619249,0.621708 -1.393147,1.040416 -2.2702772,1.228306 -0.3904555,0.08364 -1.1837057,0.102242 -1.5787785,0.03702 z"
     id="path4191"
     inkscape:connector-curvature="0" />
  <g
     inkscape:label="Layer 1"
     inkscape:groupmode="layer"
     id="layer1" />
  <path
     id="rect4136"
     style="fill:none;fill-opacity:1;stroke:#000000;stroke-width:1;stroke-linecap:butt;stroke-linejoin:round;stroke-miterlimit:4;stroke-dasharray:none;stroke-dashoffset:0"
     d="m 10.5,20.919922 0,-17.466797 C 10.5,2.3712571 9.608,1.5 8.5,1.5 c -1.108,0 -2,0.8712571 -2,1.953125 l 0,17.470703 0,0 C 4.679995,21.718141 3.502544,23.514214 3.5,25.5 c 0,2.761424 2.238576,5 5,5 2.761424,0 5,-2.238576 5,-5 -9.93e-4,-1.987204 -1.178697,-3.785196 -3,-4.580078 z m -4.5,-4.50483 5,0" />
  <path
     style="fill:none;fill-rule:evenodd;stroke:#000000;stroke-width:0.99999994px;stroke-linecap:butt;stroke-linejoin:miter;stroke-opacity:1"
     inkscape:path-effect="#path-effect4279"
     inkscape:original-d="m 20,6.5 5,0"
     id="path4277"
     d="m 20,6.5 5,0"
     inkscape:connector-curvature="0" />
  <path
     style="fill:none;fill-rule:evenodd;stroke:#000000;stroke-width:0.99999994px;stroke-linecap:butt;stroke-linejoin:miter;stroke-opacity:1"
     inkscape:path-effect="#path-effect4198"
     inkscape:original-d="m 24.5,20.919922 0,-17.466797 C 24.5,2.3712571 23.608,1.5 22.5,1.5 c -1.108,0 -2,0.8712571 -2,1.953125 l 0,17.470703 0,0 c -1.820005,0.794313 -2.997456,2.590386 -3,4.576172 0,2.761424 2.238576,5 5,5 2.761424,0 5,-2.238576 5,-5 -9.93e-4,-1.987204 -1.178697,-3.785196 -3,-4.580078 z"
     id="path4196"
     d="m 24.5,20.919922 0,-17.466797 c 0,-0.2701651 -0.0056,-0.5437487 -0.07861,-0.8038742 C 24.348422,2.3891253 24.208244,2.1468332 24.011144,1.96206 23.814045,1.7772867 23.565137,1.6524817 23.303841,1.5838252 23.042546,1.5151687 22.770165,1.5 22.5,1.5 c -0.270165,0 -0.542546,0.015169 -0.803841,0.083825 -0.261296,0.068657 -0.510204,0.1934615 -0.707303,0.3782348 -0.1971,0.1847732 -0.337278,0.4270653 -0.410244,0.6871908 C 20.505647,2.9093763 20.5,3.1829599 20.5,3.453125 l 0,17.470703 0,0 c -0.884849,0.385404 -1.653318,1.033528 -2.182464,1.840683 C 17.78839,23.571666 17.500527,24.534861 17.5,25.5 c -7.14e-4,1.309114 0.538154,2.610358 1.463925,3.535953 C 19.889697,29.961549 21.190886,30.500144 22.5,30.5 23.809006,30.499856 25.109946,29.961085 26.035608,29.035533 26.96127,28.109981 27.500209,26.809006 27.5,25.5 27.499846,24.534285 27.212185,23.570405 26.68304,22.762563 26.153894,21.95472 25.385223,21.305907 24.5,20.919922 Z" />
  <path
     style="fill:none;fill-rule:evenodd;stroke:#000000;stroke-width:1px;stroke-linecap:butt;stroke-linejoin:miter;stroke-opacity:1"
     d="m 9,4.5 2,0"
     id="path4203"
     inkscape:path-effect="#path-effect4205"
     inkscape:original-d="m 9,4.5 2,0"
     inkscape:connector-curvature="0" />
  <path
     style="fill:none;fill-rule:evenodd;stroke:#000000;stroke-width:1px;stroke-linecap:butt;stroke-linejoin:miter;stroke-opacity:1"
     d="m 9,6.5 2,0"
     id="path4203-9"
     inkscape:path-effect="#path-effect4205-7"
     inkscape:original-d="m 9,6.5 2,0"
     inkscape:connector-curvature="0" />
  <path
     style="fill:none;fill-rule:evenodd;stroke:#000000;stroke-width:1px;stroke-linecap:butt;stroke-linejoin:miter;stroke-opacity:1"
     d="m 9,8.5 2.000001,0"
     id="path4203-8"
     inkscape:path-effect="#path-effect4205-3"
     inkscape:original-d="m 9,8.5 2.000001,0"
     inkscape:connector-curvature="0" />
  <path
     style="fill:none;fill-rule:evenodd;stroke:#000000;stroke-width:1px;stroke-linecap:butt;stroke-linejoin:miter;stroke-opacity:1"
     d="m 9,10.5 2.000001,0"
     id="path4203-8-5"
     inkscape:path-effect="#path-effect4205-3-8"
     inkscape:original-d="m 9,10.5 2.000001,0"
     inkscape:connector-curvature="0" />
  <path
     style="fill:none;fill-rule:evenodd;stroke:#000000;stroke-width:1px;stroke-linecap:butt;stroke-linejoin:miter;stroke-opacity:1"
     d="m 9,12.5 2.000001,0"
     id="path4203-8-8"
     inkscape:path-effect="#path-effect4205-3-2"
     inkscape:original-d="m 9,12.5 2.000001,0"
     inkscape:connector-curvature="0" />
  <path
     style="fill:none;fill-rule:evenodd;stroke:#000000;stroke-width:1px;stroke-linecap:butt;stroke-linejoin:miter;stroke-opacity:1"
     d="m 9,14.5 2.000001,0"
     id="path4203-8-3"
     inkscape:path-effect="#path-effect4205-3-0"
     inkscape:original-d="m 9,14.5 2.000001,0"
     inkscape:connector-curvature="0" />
  <path
     style="fill:none;fill-rule:evenodd;stroke:#000000;stroke-width:1px;stroke-linecap:butt;stroke-linejoin:miter;stroke-opacity:1"
     d="m 9,18.5 2.000001,0"
     id="path4203-8-39"
     inkscape:path-effect="#path-effect4205-3-5"
     inkscape:original-d="m 9,18.5 2.000001,0"
     inkscape:connector-curvature="0" />
  <path
     style="fill:none;fill-rule:evenodd;stroke:#000000;stroke-width:1px;stroke-linecap:butt;stroke-linejoin:miter;stroke-opacity:1"
     d="m 23,4.5 2.000001,0"
     id="path4203-8-7"
     inkscape:path-effect="#path-effect4205-3-21"
     inkscape:original-d="m 23,4.5 2.000001,0"
     inkscape:connector-curvature="0" />
  <path
     style="fill:none;fill-rule:evenodd;stroke:#000000;stroke-width:1px;stroke-linecap:butt;stroke-linejoin:miter;stroke-opacity:1"
     d="m 23,8.5 2.000001,0"
     id="path4203-8-38"
     inkscape:path-effect="#path-effect4205-3-1"
     inkscape:original-d="m 23,8.5 2.000001,0"
     inkscape:connector-curvature="0" />
  <path
     style="fill:none;fill-rule:evenodd;stroke:#000000;stroke-width:1px;stroke-linecap:butt;stroke-linejoin:miter;stroke-opacity:1"
     d="m 23,10.5 2.000001,0"
     id="path4203-8-6"
     inkscape:path-effect="#path-effect4205-3-7"
     inkscape:original-d="m 23,10.5 2.000001,0"
     inkscape:connector-curvature="0" />
  <path
     style="fill:none;fill-rule:evenodd;stroke:#000000;stroke-width:1px;stroke-linecap:butt;stroke-linejoin:miter;stroke-opacity:1"
     d="m 23,12.5 2.000001,0"
     id="path4203-8-9"
     inkscape:path-effect="#path-effect4205-3-70"
     inkscape:original-d="m 23,12.5 2.000001,0"
     inkscape:connector-curvature="0" />
  <path
     style="fill:none;fill-rule:evenodd;stroke:#000000;stroke-width:1px;stroke-linecap:butt;stroke-linejoin:miter;stroke-opacity:1"
     d="m 23,14.5 2.000001,0"
     id="path4203-8-56"
     inkscape:path-effect="#path-effect4205-3-3"
     inkscape:original-d="m 23,14.5 2.000001,0"
     inkscape:connector-curvature="0" />
  <path
     style="fill:none;fill-rule:evenodd;stroke:#000000;stroke-width:1px;stroke-linecap:butt;stroke-linejoin:miter;stroke-opacity:1"
     d="m 23,16.5 2.000001,0"
     id="path4203-8-50"
     inkscape:path-effect="#path-effect4205-3-15"
     inkscape:original-d="m 23,16.5 2.000001,0"
     inkscape:connector-curvature="0" />
  <path
     style="fill:none;fill-rule:evenodd;stroke:#000000;stroke-width:1px;stroke-linecap:butt;stroke-linejoin:miter;stroke-opacity:1"
     d="m 23,18.5 2.000001,0"
     id="path4203-8-32"
     inkscape:path-effect="#path-effect4205-3-6"
     inkscape:original-d="m 23,18.5 2.000001,0"
     inkscape:connector-curvature="0" />
</svg>
