<?xml version="1.0" encoding="UTF-8" standalone="no"?>
<svg id="svg2" xmlns:rdf="http://www.w3.org/1999/02/22-rdf-syntax-ns#" xmlns="http://www.w3.org/2000/svg" height="32" width="128" version="1.1" xmlns:cc="http://creativecommons.org/ns#" xmlns:dc="http://purl.org/dc/elements/1.1/" viewBox="0 0 128 32.000001">
 <path id="rect4182" fill="#FFF" d="m0.5-0.5v31s1.2409-0.47345 1.8941-0.52862c0.71993-0.06082 1.4378 0.14454 2.1559 0.22419 0.86163 0.09558 1.716 0.29771 2.5829 0.30443 0.70002 0.0054 1.3903-0.17428 2.0892-0.21346 1.1363-0.06371 2.2786-0.1113 3.4142-0.03481 0.57258 0.03857 1.13 0.26427 1.7036 0.24827 0.85266-0.02378 1.6549-0.49343 2.5077-0.50958 0.44255-0.0084 0.87194 0.15417 1.3104 0.21497 0.86262 0.11963 1.7251 0.30286 2.5959 0.29461 1.3509-0.01279 2.6708-0.63902 4.0176-0.5332 0.62223 0.04889 1.1728 0.48233 1.7949 0.5332 1.1347 0.0928 2.2502-0.42104 3.3887-0.42773 1.2555-0.0074 2.4872 0.38972 3.7422 0.42773 0.9394 0.02845 1.8757-0.13993 2.8155-0.15006 1.5785-0.01701 3.1554 0.1929 4.7333 0.15006 1.4475-0.0393 2.8801-0.37672 4.3281-0.37305 1.3676 0.0035 2.7214 0.46529 4.0859 0.37305 0.75614-0.05112 1.4579-0.51626 2.2158-0.50958 0.62076 0.0055 1.1892 0.39214 1.8073 0.44933 0.9331 0.08634 1.8717-0.09844 2.8063-0.16617 1.1213-0.08125 2.2477-0.13416 3.3605-0.28811 1.2309-0.17028 3.6533 0.34813 3.6533 0.34813l-0.003-30.834zm64 0v31s0.7608 0.07096 1.8112-0.27777c0.39639-0.1316 1.321 0.06412 1.9814 0.09919 1.0602 0.05631 2.1252 0.29908 3.1801 0.17858 0.54613-0.06239 1.036-0.40856 1.5832-0.4614 0.42288-0.04084 0.84506 0.09243 1.2693 0.11588 0.42299 0.02338 0.84799-0.0038 1.2707 0.02462 0.60284 0.04051 1.1985 0.15787 1.8007 0.20769 0.89732 0.07425 1.7974 0.12509 2.6977 0.13576 0.70193 0.0083 1.4034-0.03784 2.1052-0.05598 0.97678-0.02525 1.9535-0.09349 2.9304-0.07361 0.54244 0.01104 1.0821 0.13037 1.6241 0.10703 1.009-0.04343 1.988-0.3797 2.9948-0.45828 0.52336-0.04085 1.0608-0.11265 1.5749-0.0062 0.28686 0.0594 0.52009 0.28484 0.80519 0.35218 0.70619 0.16682 1.4484 0.10898 2.174 0.11232 1.2863 0.0059 2.5691-0.1684 3.8554-0.16358 1.0932 0.0041 2.1823 0.16453 3.2755 0.16358 0.76285-0.00066 1.5235-0.08175 2.2855-0.11811 1.1126-0.05308 2.2275-0.06407 3.3383-0.14604 0.70621-0.05212 1.405-0.20668 2.113-0.21971 0.81328-0.01496 1.6264 0.07296 2.4348 0.16296 0.68902 0.07671 1.362 0.30049 2.0549 0.3209 0.98709 0.02907 1.9615-0.26953 2.9489-0.28405 1.4224-0.02092 2.8365 0.33552 4.2581 0.28405 0.818-0.02962 1.6137-0.3164 2.4319-0.34021 1.4-0.041 4.2 0.34 4.2 0.34v-31z" stroke="#FFF"/>
</svg>
