<?xml version="1.0" encoding="UTF-8" standalone="no"?>
<svg id="svg2" xmlns:rdf="http://www.w3.org/1999/02/22-rdf-syntax-ns#" xmlns="http://www.w3.org/2000/svg" version="1.1" xmlns:cc="http://creativecommons.org/ns#" xmlns:xlink="http://www.w3.org/1999/xlink" viewBox="0 0 32 64" xmlns:dc="http://purl.org/dc/elements/1.1/">
 <path id="path4330" d="m16 5.4648c-1.4007 0-2.5352 1.1559-2.5352 2.6758v39.385a0.96465 0.96465 0 0 1 -0.44531 0.8125c-1.593 1.017-2.554 2.773-2.555 4.662 0 3.0686 2.4666 5.5352 5.5352 5.5352 3.0679 0 5.5341-2.4656 5.5352-5.5332-0.0025-1.8876-0.96415-3.6418-2.5547-4.6582a0.96465 0.96465 0 0 1 -0.44531 -0.8125v-39.391c0-1.5202-1.134-2.6762-2.535-2.6762z" xlink:href="#a" stroke="#fff" fill="none"/>
 <path id="a" d="m16 4.5c-1.939 0-3.5 1.6232-3.5 3.6406v39.385c-1.868 1.193-2.9991 3.257-3 5.474 0 3.5899 2.9101 6.5 6.5 6.5s6.5-2.9101 6.5-6.5c-0.0029-2.215-1.1335-4.2761-3-5.4688v-39.391c0-2.0168-1.561-3.64-3.5-3.64z" stroke="#000" fill="none"/>
 <g stroke="#000" stroke-width="1px" fill="none">
  <path id="path4169-3" d="m14 17.5h4"/>
  <path id="path4169-3-8" d="m14 29.5h4"/>
  <path id="path4169-3-2" d="m14 41.5h4"/>
 </g>
</svg>
